<?xml version="1.0" encoding="utf-8"?>
<!-- Generator: Adobe Illustrator 15.0.0, SVG Export Plug-In . SVG Version: 6.00 Build 0)  -->
<!DOCTYPE svg PUBLIC "-//W3C//DTD SVG 1.1//EN" "http://www.w3.org/Graphics/SVG/1.1/DTD/svg11.dtd">
<svg version="1.1" id="Layer_1" xmlns="http://www.w3.org/2000/svg" xmlns:xlink="http://www.w3.org/1999/xlink" x="0px" y="0px"
	 width="400px" height="355px" viewBox="0 0 400 355" enable-background="new 0 0 400 355" xml:space="preserve">
<g>
	<path fill="#3B444F" d="M0,19.609c0-1.498,0-2.996,0-4.494C3.109-2.64,26.412-4.175,32.62,10.213
		c2.374,5.502,2.002,12.55-1.631,16.749c14.801,14.993,32.03,27.553,47.299,42.077c-3.637,3.029-6.557,6.775-10.194,9.805
		C54.465,62.813,40.839,46.779,26.911,31.047C16.689,39.004,0.633,31.37,0,19.609z"/>
	<path fill="#3B444F" d="M372.681,31.047c-13.933,15.727-27.589,31.729-41.183,47.796c-3.637-3.029-6.557-6.776-10.193-9.805
		c15.393-14.128,31.727-27.314,47.299-41.26c-1.795-4.244-3.238-6.14-3.262-10.213c-0.111-20.424,31.792-23.293,34.25-2.451
		c1.313,11.128-6.928,21.744-20.795,19.2C376.642,33.92,374.681,32.455,372.681,31.047z"/>
	<path fill="#3B444F" d="M233.23,75.984c10.672,3.742,21.608,7.22,30.174,13.073c4.898-3.41,8.973-6.471,14.271-10.622
		c4.228-3.312,8.56-9.554,15.495-8.987c7.042,0.575,15.905,13.075,20.387,17.566c3.93,3.936,16.824,12.934,17.125,20.426
		c0.252,6.268-5.765,11.053-8.97,15.115c-3.605,4.57-6.608,8.694-10.602,13.481c5.036,9.523,9.626,19.497,12.64,31.047
		c5.604,0.929,11.567,1.267,17.941,2.042c5.563,0.677,12.763,0.809,15.901,3.677c4.383,4.004,2.854,16.071,2.854,25.328
		c0,10.909,2.286,27.118-4.077,31.047c-2.787,1.722-10.804,2.204-16.311,2.859c-23.347,2.782-51.434,2.043-78.694,2.043
		c-38.327,0-84.441,0-123.14,0c-27.486,0-54.654,0.983-78.695-2.043c-8.792-1.106-17.788-1.136-19.98-7.353
		c-2.273-6.449-0.408-16.369-0.408-25.328c0-8.34-1.331-22.147,2.447-26.146c3.619-3.83,11.197-3.067,16.31-3.676
		c5.722-0.682,11.094-1.682,17.533-2.451c3.855-10.572,7.245-21.61,13.048-30.23c-3.089-4.857-6.308-8.877-10.193-13.889
		c-3.285-4.238-9.647-9.245-9.378-15.524c0.306-7.13,12.925-16.625,17.125-20.834c3.914-3.921,13.712-16.853,20.795-17.158
		c6.326-0.272,11.355,5.744,15.495,8.987c5.018,3.931,8.82,7.366,13.456,10.622c9.092-5.326,19.136-9.697,30.581-12.664
		c3.692-11.047-1.373-34.53,11.009-36.767c7.527-1.359,17.148,0,24.873,0c8.086,0,21.045-1.43,24.873,2.451
		C233.627,48.681,229.527,66.855,233.23,75.984z M130.071,139.304c-2.257,1.143-1.736,5.069-2.039,8.17
		c-2.576,0.823-4.896,1.903-7.339,2.86c-2.195-1.341-3.972-3.102-6.116-4.494c-3.961,2.296-7.087,5.428-9.378,9.396
		c1.337,2.337,3.491,3.856,4.485,6.536c-1.487,1.914-1.618,5.188-3.262,6.945c-2.542,0.312-5.607,0.102-7.339,1.226
		c-0.672,3.32-0.672,9.344,0,12.665c2.118,0.873,4.967,1.016,7.747,1.226c0.822,2.581,1.9,4.905,2.854,7.354
		c-1.347,2.326-3.568,3.777-4.485,6.535c2.667,2.244,5.279,8.434,8.971,8.579c3.018,0.119,3.525-3.385,6.932-4.085
		c2.109,1.291,5.13,1.668,6.932,3.268c0.167,2.691,0.159,5.561,1.223,7.354c3.314,0.673,9.326,0.673,12.64,0
		c0.872-2.122,1.014-4.977,1.223-7.762c2.547-0.854,4.844-1.956,7.339-2.859c2.321,1.352,3.891,3.455,6.524,4.494
		c2.349-2.71,8.65-5.471,8.563-9.396c-0.062-2.756-3.441-3.635-4.485-6.535c1.983-1.555,1.856-5.223,3.67-6.945
		c2.637-0.218,5.442-0.268,7.339-1.227c0.672-3.319,0.672-9.343,0-12.664c-1.87-1.122-4.996-0.986-7.747-1.226
		c-0.852-2.551-1.952-4.853-2.854-7.353c1.164-3.014,4.391-3.919,4.078-6.945c-0.347-3.356-6.659-6.509-8.971-8.579
		c-2.533,1.139-3.772,3.574-6.524,4.494c-1.91-1.491-5.178-1.621-6.932-3.269c-0.297-2.562-0.345-5.373-1.223-7.353
		C138.734,138.795,133.903,139.55,130.071,139.304z M257.695,139.712c-0.871,2.122-1.014,4.976-1.223,7.762
		c-2.576,0.823-4.896,1.903-7.339,2.86c-2.323-1.35-3.771-3.575-6.524-4.494c-2.238,2.672-8.416,5.289-8.563,8.987
		c-0.119,3.023,3.378,3.533,4.078,6.945c-1.289,2.113-1.666,5.14-3.262,6.945c-2.543,0.312-5.607,0.102-7.34,1.226
		c-0.672,3.32-0.672,9.344,0,12.665c2.119,0.873,4.968,1.016,7.748,1.226c1.043,2.494,1.886,5.19,3.262,7.354
		c-1.535,2.347-4.602,3.773-4.485,6.535c0.075,1.767,5.786,8.65,8.972,8.579c3.188-0.071,3.654-3.581,6.523-4.493
		c1.63,1.906,5.239,1.832,6.932,3.676c0.297,2.563,0.346,5.373,1.224,7.354c3.313,0.673,9.325,0.673,12.64,0
		c1.025-1.968,0.934-5.056,1.223-7.762c2.547-0.854,4.844-1.956,7.34-2.859c2.32,1.352,3.891,3.455,6.523,4.494
		c2.404-2.71,8.648-5.542,8.563-9.396c-0.063-2.881-3.465-3.269-4.077-6.535c1.413-1.988,1.61-5.194,3.262-6.945
		c2.638-0.218,5.442-0.268,7.339-1.227c0.672-3.319,0.672-9.343,0-12.664c-1.909-1.083-4.872-1.111-7.747-1.226
		c-0.852-2.551-1.952-4.853-2.854-7.353c1.163-3.014,4.391-3.919,4.077-6.945c-0.346-3.356-6.658-6.509-8.971-8.579
		c-2.533,1.139-3.771,3.574-6.523,4.494c-1.91-1.491-5.178-1.621-6.932-3.269c-0.218-2.642-0.267-5.453-1.224-7.353
		C267.021,139.04,261.01,139.04,257.695,139.712z"/>
	<path fill="#3B444F" d="M133.333,158.096c24.303-2.952,28.215,35.046,3.669,36.765c-10.965,0.77-20.612-6.803-19.979-19.608
		C117.521,165.18,123.7,159.266,133.333,158.096z"/>
	<path fill="#3B444F" d="M261.773,158.096c11.718-1.496,20.047,6.039,20.795,16.749c0.929,13.289-9.262,20.528-19.571,20.017
		C240.879,193.766,239.854,160.894,261.773,158.096z"/>
	<path fill="#3B444F" d="M221.407,355c-14.407,0-28.814,0-43.221,0c-3.373-3.977-2.935-10.77-3.67-16.749
		c-0.756-6.149-1.656-12.573-2.039-18.383c-13.939-3.737-26.444-8.911-37.513-15.523c-4.518,3.449-8.346,6.574-13.456,10.621
		c-2.475,1.96-11.059,10.37-14.271,10.214c-2.26-0.111-6.279-5.065-8.563-7.354c-6.573-6.585-9.505-9.523-15.902-15.932
		c-2.152-2.158-7.324-6.195-7.339-8.987c-0.013-2.357,3.288-4.892,4.893-6.945c6.042-7.729,10.091-13.471,15.902-20.834
		c-3.345-5.637-7.575-12.563-8.971-18.792c12.912,0,25.824,0,38.736,0c15.513,22.072,38.148,41.43,74.21,41.26
		c36.14-0.17,57.871-19.689,73.802-41.26c12.912,0,25.824,0,38.736,0c-2.527,7-6.033,13.02-9.378,19.2
		c4.134,4.964,6.716,8.557,10.602,13.481c2.063,2.612,10.417,10.598,10.193,14.297c-0.152,2.52-5.325,6.562-7.34,8.58
		c-6.659,6.672-9.543,9.562-15.902,15.932c-2.403,2.406-6.504,7.365-8.971,7.354c-2.164-0.012-4.569-3.064-6.932-4.902
		c-7.294-5.676-14.055-10.7-20.388-15.933c-11.295,6.251-22.883,12.206-37.513,15.115c-0.426,4.957-1.184,11.015-2.039,17.976
		C224.396,342.971,224.152,353.264,221.407,355z"/>
</g>
</svg>
