<?xml version="1.0" encoding="utf-8"?>
<!-- Generator: Adobe Illustrator 15.0.0, SVG Export Plug-In . SVG Version: 6.00 Build 0)  -->
<!DOCTYPE svg PUBLIC "-//W3C//DTD SVG 1.1//EN" "http://www.w3.org/Graphics/SVG/1.1/DTD/svg11.dtd">
<svg version="1.1" id="Layer_1" xmlns="http://www.w3.org/2000/svg" xmlns:xlink="http://www.w3.org/1999/xlink" x="0px" y="0px"
	 width="2000px" height="400px" viewBox="-105.5 596.5 2000 400" enable-background="new -105.5 596.5 2000 400"
	 xml:space="preserve">
<g>
	<path d="M12.5,596.5c52.446,0,104.892,0,157.338,0c16.047,6.424,23.839,21.25,20.824,47.061c5.968,5.693,23.561-0.434,30.077,4.705
		c3.174,11.438,4.166,35.797,0,47.059c-7.457,3.396-19.406,2.227-30.077,2.354c8.688,48.053-24.171,53.854-67.101,49.412
		c0,4.707,0,9.412,0,14.117c19.986,7.131,57.295-3.361,74.04,7.061c3.826,8.658,10.798,14.119,9.256,28.234
		c39.722-1.24,58.609,5.057,64.785,32.939c5.615,25.355-7.695,60.359,16.196,68.236c0,9.414,0,18.826,0,28.234
		c-7.569,7.707-35.33,5.74-46.275,2.354c-7.472-19.053,0.173-41.83,13.884-47.061c4.316-43.604,0.231-78.664-48.59-68.234
		c1.596,46.33,6.951,96.482-48.591,84.707c-3.757,4.389-1.841,29.688-2.313,44.707c4.072,7.625,19.049,4.16,25.45,9.412
		c7.384,8.219,14.935,33.193,4.629,44.703c-24.679,0-49.359,0-74.039,0c-9.326-9.475-3.833-34.086,2.314-42.35
		c7.409-3.447,12.854-8.889,25.449-7.061c0-16.473,0-32.939,0-49.412c-31.618,0-63.242,0-94.864,0
		c-5.362,11.016-0.797,32.131-2.313,47.059c12.1,2.598,23.917,5.484,30.078,14.115c2.89,8.832,4.273,29.08,0,37.648
		c-25.453,0-50.902,0-76.353,0c-4.276-8.568-2.892-28.816,0-37.648c7.742-6.24,13.388-14.615,30.078-11.762
		c0-16.473,0-32.939,0-49.412c-20.843,1.584-37.353-1.232-46.277-11.768c-4.886-19.342-1.141-47.465-2.314-70.586
		c-52.815,3.516-75.022-24.098-67.098-82.354c-2.598-9.904-12.252-12.635-16.195-21.176c0-8.627,0-17.254,0-25.883
		c7.527-8.498,37.438-5.215,48.588-2.354c3.91,25.936-4.704,39.137-16.196,49.412c-5.299,43.818,3.388,73.418,50.903,63.529
		c-9.505-49.668,55.28-23.785,80.982-37.646c0-3.137,0-6.273,0-9.412c-37.083-1.506-76.945-0.186-64.784-51.766
		c-11.303-0.273-24.384,1.268-32.393-2.354c-2.458-14.523-7.137-44.629,6.94-49.41c8.482,0,16.969,0,25.452,0
		c0-10.98,0-21.961,0-32.941C-1.757,605.529,5.753,601.402,12.5,596.5z M10.187,617.678c0,36.863,0,73.727,0,110.588
		c48.655,3.912,113.309,3.912,161.964,0c3.803-32.523,3.803-80.416,0-112.939C124.153,612.861,54.372,608.438,10.187,617.678z
		 M-22.206,681.207c6.146-0.023,13.215,0.889,16.199-2.352c0-4.707,0-9.414,0-14.119c-5.518-3.795-10.202,0.949-16.199-2.354
		C-22.206,668.658-22.206,674.932-22.206,681.207z M190.662,681.207c6.144-0.023,13.214,0.889,16.195-2.352
		c0-4.707,0-9.414,0-14.119c-5.516-3.795-10.2,0.949-16.195-2.354C190.662,668.658,190.662,674.932,190.662,681.207z
		 M-77.733,714.146c4.976-1.996,5.362-8.662,4.625-16.471c-5.397,0-10.797,0-16.194,0C-90.33,708.133-88.011,715.188-77.733,714.146
		z M74.972,763.561c10.798,0,21.596,0,32.394,0c0-5.49,0-10.98,0-16.471c-10.798,0-21.596,0-32.394,0
		C74.972,752.58,74.972,758.07,74.972,763.561z M-6.007,787.088c0,30.59,0,61.176,0,91.768c59.514,3.902,134.84,3.902,194.354,0
		c3.653-27.029,3.956-69.494,0-96.473c-58.646-5.461-127.237-0.803-189.729-2.352C-4.29,780.996-6.112,783.064-6.007,787.088z
		 M255.446,914.15c5.397,0,10.797,0,16.196,0c0-4.707,0-9.414,0-14.119C262.495,893.031,250.962,899.871,255.446,914.15z
		 M10.187,980.031c16.198,0,32.394,0,48.591,0c0-4.707,0-9.412,0-14.119C46.014,965.141,2.79,952.574,10.187,980.031z
		 M123.56,980.031c16.969,0,33.937,0,50.902,0c1.672-7.193-2.363-8.574-2.312-14.119C158.64,964.381,117.49,953.926,123.56,980.031z
		 M47.206,631.795c35.764-6.453,32.423,48.389,4.628,49.412C27.36,682.107,13.05,637.959,47.206,631.795z M42.58,660.031
		c3.087,3.355,13.108,3.355,16.197,0C62.984,642,38.373,642,42.58,660.031z M128.188,631.795
		c36.587-7.789,35.056,47.367,6.943,49.412C110.938,682.967,94.088,639.053,128.188,631.795z M123.56,657.678
		c1.965,5.063,8.52,5.455,16.197,4.705c0-4.705,0-9.412,0-14.117C131.739,644.043,123.956,647.805,123.56,657.678z M58.777,707.09
		c8.028,9.754,63.771,15.307,64.784-4.707C112.537,696.783,62.496,689.824,58.777,707.09z M35.638,815.326
		c3.304-0.564,3.903-3.875,6.943-4.709C44.926,780.252,10.397,810.541,35.638,815.326z M123.56,798.854
		c-1.371,20.566,2.853,46.822-2.313,63.529c-13.15,1.141-39.994-0.773-60.155,0c-3.8-16.07-3.8-47.459,0-63.529
		C77.15,794.729,107.399,795.357,123.56,798.854z M74.972,845.91c10.798,0,21.596,0,32.394,0c0-10.979,0-21.957,0-32.939
		c-10.798,0-21.596,0-32.394,0C74.972,823.953,74.972,834.932,74.972,845.91z M153.64,815.326c3.187-3.035,2.29-10.223,2.314-16.473
		C139.829,787.467,132.637,819.232,153.64,815.326z M28.698,848.264c9.437,0.977,14.597-2.408,13.882-11.762
		C37.096,821.619,19.028,835.719,28.698,848.264z M139.757,836.502c1.032,7.574,3.534,13.662,13.883,11.762
		c3.187-3.029,2.29-10.217,2.314-16.469C148.418,827.887,143.817,831.074,139.757,836.502z"/>
	<g>
		<path d="M548.988,857.881H431.649c-3.002,0-6.233-0.361-9.695-1.082c-3.461-0.719-6.88-1.844-10.257-3.371
			c-3.378-1.527-6.61-3.498-9.695-5.916c-3.086-2.416-5.816-5.342-8.193-8.777c-2.377-3.434-4.274-7.42-5.691-11.957
			c-1.419-4.535-2.127-9.648-2.127-15.33v-89.557c0-3.055,0.354-6.34,1.063-9.859s1.814-6.998,3.315-10.434
			c1.502-3.434,3.461-6.721,5.88-9.857c2.418-3.137,5.315-5.916,8.693-8.332c3.378-2.418,7.277-4.346,11.696-5.789
			c4.42-1.441,9.425-2.162,15.012-2.162h117.339v33.074H431.649c-4.254,0-7.506,1.146-9.758,3.436
			c-2.251,2.289-3.377,5.682-3.377,10.178v89.303c0,4.242,1.146,7.527,3.439,9.859c2.294,2.334,5.525,3.498,9.695,3.498h117.339
			V857.881z"/>
		<path d="M693.722,753.439h-73.18c-4.421,0-7.757,1.125-10.008,3.369c-2.252,2.248-3.378,5.533-3.378,9.859v91.213h-32.524v-91.213
			c0-5.68,0.709-10.768,2.127-15.266c1.417-4.494,3.314-8.459,5.691-11.895c2.377-3.434,5.108-6.359,8.193-8.777
			c3.087-2.416,6.318-4.389,9.695-5.916c3.377-1.525,6.797-2.648,10.258-3.371c3.461-0.719,6.692-1.08,9.694-1.08h73.431V753.439z"
			/>
		<path d="M818.69,857.881h-58.67c-4.67,0-9.652-0.807-14.947-2.418c-5.297-1.609-10.237-4.262-14.824-7.951
			c-4.587-3.688-8.382-8.479-11.384-14.375c-3.002-5.893-4.504-13.121-4.504-21.689v-91.084h32.524v91.084
			c0,4.326,1.127,7.633,3.379,9.924c2.251,2.289,5.587,3.434,10.007,3.434h58.419V857.881z M864.225,871.111
			c0,5.68-0.709,10.791-2.126,15.328c-1.418,4.535-3.295,8.523-5.629,11.959c-2.336,3.434-5.046,6.359-8.132,8.777
			c-3.086,2.416-6.317,4.389-9.694,5.914c-3.378,1.527-6.776,2.65-10.195,3.371c-3.42,0.721-6.673,1.082-9.758,1.082h-58.67v-33.074
			h58.67c4.337,0,7.589-1.146,9.758-3.436c2.168-2.289,3.252-5.598,3.252-9.922V720.363h32.524V871.111z"/>
		<path d="M1044.36,811.447c0,5.682-0.709,10.795-2.126,15.33c-1.419,4.537-3.295,8.523-5.63,11.957
			c-2.335,3.436-5.045,6.361-8.132,8.777c-3.085,2.418-6.316,4.389-9.694,5.916c-3.377,1.527-6.775,2.652-10.195,3.371
			c-3.419,0.721-6.671,1.082-9.757,1.082h-58.669v-33.076h58.669c4.336,0,7.589-1.145,9.757-3.434
			c2.169-2.291,3.253-5.598,3.253-9.924v-44.523c0-4.582-1.105-7.971-3.315-10.178c-2.209-2.205-5.441-3.307-9.694-3.307h-58.419
			c-4.42,0-7.756,1.125-10.008,3.369c-2.252,2.248-3.377,5.533-3.377,9.859v134.211h-32.525V766.668
			c0-5.68,0.71-10.768,2.127-15.266c1.418-4.494,3.315-8.459,5.691-11.895c2.377-3.434,5.108-6.359,8.193-8.777
			c3.087-2.416,6.318-4.389,9.695-5.916c3.378-1.525,6.797-2.648,10.258-3.371c3.461-0.719,6.692-1.08,9.695-1.08h58.669
			c5.588,0,10.592,0.721,15.011,2.162c4.421,1.443,8.319,3.354,11.696,5.725c3.378,2.375,6.255,5.135,8.632,8.27
			c2.377,3.137,4.316,6.424,5.817,9.859c1.501,3.434,2.606,6.891,3.314,10.367c0.709,3.479,1.063,6.787,1.063,9.922V811.447z"/>
		<path d="M1194.473,753.439h-56.792v104.441h-32.899V753.439h-42.282v-33.076h42.282v-44.906h32.899v44.906h56.792V753.439z"/>
		<path d="M1362.476,811.447c0,5.682-0.709,10.795-2.128,15.33c-1.417,4.537-3.294,8.523-5.629,11.957
			c-2.335,3.436-5.046,6.361-8.131,8.777c-3.085,2.418-6.316,4.389-9.695,5.916c-3.377,1.527-6.797,2.652-10.258,3.371
			c-3.461,0.721-6.733,1.082-9.819,1.082h-58.669c-4.504,0-9.425-0.807-14.762-2.418c-5.337-1.609-10.278-4.262-14.823-7.951
			c-4.545-3.688-8.339-8.479-11.383-14.375c-3.045-5.893-4.566-13.121-4.566-21.689v-44.779c0-8.479,1.521-15.666,4.566-21.563
			c3.044-5.895,6.838-10.686,11.383-14.375s9.486-6.34,14.823-7.951c5.337-1.609,10.258-2.416,14.762-2.416h58.669
			c8.34,0,15.429,1.527,21.266,4.58c5.838,3.053,10.551,6.891,14.136,11.512c3.586,4.625,6.192,9.648,7.819,15.074
			c1.626,5.428,2.439,10.477,2.439,15.139V811.447z M1329.95,766.924c0-4.582-1.126-7.971-3.378-10.178
			c-2.252-2.205-5.503-3.307-9.757-3.307h-58.419c-4.337,0-7.631,1.125-9.883,3.369c-2.252,2.248-3.377,5.533-3.377,9.859v44.779
			c0,4.326,1.125,7.633,3.377,9.924c2.252,2.289,5.546,3.434,9.883,3.434h58.419c4.42,0,7.715-1.145,9.883-3.434
			c2.168-2.291,3.252-5.598,3.252-9.924V766.924z"/>
		<path d="M1572.758,817.809c0,4.07-0.688,8.439-2.063,13.104c-1.377,4.664-3.628,8.988-6.756,12.975
			c-3.127,3.988-7.192,7.314-12.196,9.986c-5.003,2.672-11.134,4.008-18.389,4.008h-123.469c-2.334,0-4.503-0.424-6.504-1.273
			c-2.002-0.846-3.732-2.014-5.191-3.498c-1.46-1.482-2.606-3.244-3.44-5.279s-1.251-4.24-1.251-6.615V692.121
			c0-2.289,0.417-4.451,1.251-6.488c0.834-2.035,1.98-3.814,3.44-5.342c1.459-1.527,3.189-2.715,5.191-3.563
			c2.001-0.846,4.17-1.271,6.504-1.271h108.833c4.002,0,8.298,0.721,12.884,2.162c4.588,1.443,8.86,3.754,12.823,6.934
			c3.961,3.18,7.255,7.314,9.881,12.402c2.628,5.09,3.941,11.322,3.941,18.701v6.234c0,5.852-0.959,12.148-2.877,18.891
			c-1.919,6.742-5.004,13.125-9.258,19.145c3.67,2.291,7.11,5.047,10.32,8.27c3.212,3.225,6.026,6.955,8.444,11.195
			c2.418,4.242,4.337,9.031,5.754,14.375c1.419,5.342,2.127,11.238,2.127,17.682V817.809z M1540.233,811.447
			c0-4.324-0.667-8.205-2.001-11.641c-1.335-3.434-3.211-6.379-5.629-8.84c-2.419-2.459-5.338-4.344-8.757-5.662
			c-3.42-1.314-7.256-1.971-11.51-1.971h-73.305v-33.33h58.669c4.253,0,8.09-0.656,11.509-1.973c3.419-1.314,6.339-3.199,8.757-5.66
			c2.419-2.459,4.274-5.406,5.566-8.842c1.293-3.436,1.938-7.314,1.938-11.639v-6.234c0-4.75-2.25-7.125-6.754-7.125h-92.695
			v116.273h107.331c0.584,0,1.292-0.043,2.127-0.127c0.833-0.084,1.584-0.338,2.251-0.762c0.667-0.426,1.251-1.146,1.752-2.164
			c0.5-1.018,0.75-2.418,0.75-4.197V811.447z"/>
		<path d="M1744.512,811.447c0,5.682-0.708,10.795-2.126,15.33c-1.418,4.537-3.295,8.523-5.629,11.957
			c-2.336,3.436-5.046,6.361-8.132,8.777c-3.085,2.418-6.317,4.389-9.694,5.916s-6.797,2.652-10.258,3.371
			c-3.461,0.721-6.734,1.082-9.82,1.082h-58.669c-4.503,0-9.424-0.807-14.761-2.418c-5.338-1.609-10.279-4.262-14.824-7.951
			c-4.545-3.688-8.339-8.479-11.383-14.375c-3.045-5.893-4.565-13.121-4.565-21.689v-44.779c0-8.479,1.521-15.666,4.565-21.563
			c3.044-5.895,6.838-10.686,11.383-14.375s9.486-6.34,14.824-7.951c5.337-1.609,10.258-2.416,14.761-2.416h58.669
			c8.341,0,15.429,1.527,21.266,4.58c5.838,3.053,10.551,6.891,14.136,11.512c3.586,4.625,6.192,9.648,7.819,15.074
			c1.627,5.428,2.438,10.477,2.438,15.139V811.447z M1711.987,766.924c0-4.582-1.126-7.971-3.377-10.178
			c-2.252-2.205-5.504-3.307-9.758-3.307h-58.418c-4.337,0-7.632,1.125-9.883,3.369c-2.252,2.248-3.379,5.533-3.379,9.859v44.779
			c0,4.326,1.127,7.633,3.379,9.924c2.251,2.289,5.546,3.434,9.883,3.434h58.418c4.421,0,7.715-1.145,9.883-3.434
			c2.168-2.291,3.252-5.598,3.252-9.924V766.924z"/>
		<path d="M1894.5,753.439h-56.793v104.441h-32.899V753.439h-42.282v-33.076h42.282v-44.906h32.899v44.906h56.793V753.439z"/>
	</g>
</g>
</svg>
