<?xml version="1.0" encoding="utf-8"?>
<!-- Generator: Adobe Illustrator 15.0.0, SVG Export Plug-In . SVG Version: 6.00 Build 0)  -->
<!DOCTYPE svg PUBLIC "-//W3C//DTD SVG 1.1//EN" "http://www.w3.org/Graphics/SVG/1.1/DTD/svg11.dtd">
<svg version="1.1" id="Layer_1" xmlns="http://www.w3.org/2000/svg" xmlns:xlink="http://www.w3.org/1999/xlink" x="0px" y="0px"
	 width="2000px" height="1348px" viewBox="-105.5 -617.585 2000 1348" enable-background="new -105.5 -617.585 2000 1348"
	 xml:space="preserve">
<path fill="#FFFFFF" stroke="#000000" stroke-miterlimit="10" d="M727.812-617.585c111.52,0,223.037,0,334.558,0
	c34.121,13.659,50.689,45.186,44.279,100.068c12.689,12.106,50.099-0.922,63.955,10.005c6.749,24.32,8.859,76.117,0,100.064
	c-15.855,7.222-41.265,4.734-63.955,5.004c18.474,102.177-51.396,114.512-142.681,105.068c0,10.009,0,20.013,0,30.018
	c42.499,15.163,121.831-7.147,157.437,15.013c8.136,18.411,22.96,30.023,19.682,60.037c84.463-2.637,124.625,10.752,137.758,70.042
	c11.939,53.915-16.363,128.346,34.438,145.096c0,20.018,0,40.031,0,60.035c-16.095,16.389-75.125,12.207-98.398,5.005
	c-15.888-40.512,0.367-88.945,29.522-100.068c9.178-92.717,0.491-167.268-103.32-145.091
	c3.393,98.515,14.78,205.157-103.322,180.119c-7.988,9.332-3.914,63.125-4.917,95.063c8.659,16.213,40.505,8.846,54.116,20.012
	c15.701,17.478,31.757,70.583,9.844,95.056c-52.477,0-104.957,0-157.436,0c-19.83-20.146-8.15-72.478,4.922-90.05
	c15.755-7.331,27.334-18.9,54.114-15.014c0-35.026,0-70.041,0-105.067c-67.232,0-134.476,0-201.716,0
	c-11.402,23.422-1.694,68.321-4.918,100.063c25.729,5.525,50.857,11.661,63.958,30.015c6.145,18.78,9.086,61.835,0,80.054
	c-54.123,0-108.237,0-162.354,0c-9.094-18.219-6.149-61.274,0-80.054c16.463-13.268,28.467-31.077,63.956-25.01
	c0-35.026,0-70.041,0-105.067c-44.318,3.367-79.425-2.621-98.401-25.022c-10.389-41.128-2.426-100.928-4.922-150.092
	c-112.305,7.476-159.524-51.24-142.674-175.113c-5.524-21.061-26.055-26.866-34.438-45.028c0-18.344,0-36.688,0-55.036
	c16.006-18.07,79.605-11.089,103.315-5.004c8.314,55.148-10.003,83.219-34.438,105.068
	c-11.268,93.173,7.203,156.113,108.238,135.086c-20.21-105.613,117.547-50.576,172.198-80.05c0-6.67,0-13.34,0-20.014
	c-78.852-3.202-163.614-0.394-137.754-110.073c-24.035-0.582-51.85,2.695-68.879-5.004c-5.227-30.882-15.176-94.897,14.758-105.064
	c18.036,0,36.082,0,54.121,0c0-23.349,0-46.697,0-70.046C697.495-598.386,713.464-607.161,727.812-617.585z M722.892-572.554
	c0,78.385,0,156.77,0,235.151c103.459,8.319,240.936,8.319,344.395,0c8.085-69.157,8.085-170.994,0-240.151
	C965.227-582.795,816.846-592.202,722.892-572.554z M654.013-437.467c13.07-0.05,28.1,1.889,34.446-5c0-10.009,0-20.018,0-30.023
	c-11.732-8.069-21.693,2.019-34.446-5.004C654.013-464.151,654.013-450.811,654.013-437.467z M1106.648-437.467
	c13.063-0.05,28.098,1.889,34.438-5c0-10.009,0-20.018,0-30.023c-11.729-8.069-21.689,2.019-34.438-5.004
	C1106.648-464.151,1106.648-450.811,1106.648-437.467z M535.941-367.426c10.58-4.245,11.402-18.419,9.835-35.023
	c-11.478,0-22.958,0-34.436,0C509.156-380.213,514.088-365.212,535.941-367.426z M860.648-262.354c22.96,0,45.921,0,68.88,0
	c0-11.674,0-23.349,0-35.022c-22.959,0-45.92,0-68.88,0C860.648-285.702,860.648-274.028,860.648-262.354z M688.459-212.326
	c0,65.045,0,130.082,0,195.132c126.547,8.298,286.719,8.298,413.268,0c7.769-57.475,8.412-147.771,0-205.136
	c-124.701-11.612-270.553-1.707-403.434-5C692.108-225.279,688.234-220.881,688.459-212.326z M1244.404,57.856
	c11.477,0,22.957,0,34.439,0c0-10.01,0-20.018,0-30.023C1259.393,12.949,1234.868,27.493,1244.404,57.856z M722.892,197.943
	c34.442,0,68.88,0,103.321,0c0-10.008,0-20.014,0-30.021C799.073,166.28,707.164,139.559,722.892,197.943z M963.964,197.943
	c36.082,0,72.162,0,108.237,0c3.556-15.296-5.024-18.231-4.915-30.021C1038.557,164.666,951.058,142.433,963.964,197.943z
	 M801.608-542.535c76.047-13.722,68.943,102.892,9.841,105.068C759.409-435.553,728.979-529.428,801.608-542.535z M791.771-482.495
	c6.564,7.135,27.874,7.135,34.441,0C835.158-520.836,782.826-520.836,791.771-482.495z M973.807-542.535
	c77.797-16.563,74.541,100.72,14.765,105.068C937.125-433.726,901.296-527.103,973.807-542.535z M963.964-487.5
	c4.179,10.765,18.116,11.6,34.441,10.005c0-10.005,0-20.014,0-30.018C981.357-516.492,964.808-508.493,963.964-487.5z
	 M826.213-382.431c17.071,20.741,135.6,32.548,137.755-10.009C940.526-404.347,834.121-419.144,826.213-382.431z M777.01-152.281
	c7.025-1.2,8.3-8.24,14.764-10.013C796.76-226.861,723.34-162.456,777.01-152.281z M963.964-187.308
	c-2.915,43.732,6.065,99.561-4.919,135.086c-27.963,2.425-85.042-1.645-127.912,0c-8.08-34.171-8.08-100.915,0-135.086
	C865.281-196.079,929.602-194.742,963.964-187.308z M860.648-87.248c22.96,0,45.921,0,68.88,0c0-23.344,0-46.689,0-70.042
	c-22.959,0-45.92,0-68.88,0C860.648-133.937,860.648-110.592,860.648-87.248z M1027.926-152.281
	c6.775-6.454,4.869-21.737,4.921-35.027C998.559-211.52,983.266-143.975,1027.926-152.281z M762.254-82.244
	c20.066,2.077,31.038-5.121,29.518-25.009C780.11-138.9,741.692-108.918,762.254-82.244z M998.405-107.253
	c2.194,16.105,7.516,29.05,29.521,25.009c6.775-6.441,4.869-21.725,4.921-35.018C1016.822-125.572,1007.039-118.794,998.405-107.253
	z"/>
<g>
	<path fill="#FFFFFF" stroke="#000000" stroke-miterlimit="10" d="M110.732,651.268h-155.66c-3.983,0-8.27-0.48-12.862-1.436
		c-4.592-0.953-9.126-2.447-13.607-4.473c-4.481-2.025-8.77-4.641-12.862-7.848c-4.093-3.205-7.716-7.086-10.869-11.645
		c-3.153-4.553-5.67-9.842-7.551-15.861c-1.883-6.018-2.822-12.801-2.822-20.338V470.863c0-4.053,0.469-8.41,1.41-13.08
		c0.94-4.668,2.407-9.283,4.398-13.84c1.992-4.555,4.592-8.916,7.8-13.078c3.207-4.16,7.051-7.846,11.532-11.051
		c4.481-3.209,9.654-5.766,15.516-7.682c5.864-1.912,12.503-2.869,19.915-2.869h155.66v43.879h-155.66
		c-5.644,0-9.958,1.52-12.945,4.557c-2.986,3.035-4.48,7.535-4.48,13.5v118.469c0,5.629,1.521,9.986,4.563,13.08
		c3.042,3.098,7.33,4.641,12.862,4.641h155.66V651.268z"/>
	<path fill="#FFFFFF" stroke="#000000" stroke-miterlimit="10" d="M302.735,512.717h-97.08c-5.865,0-10.29,1.492-13.276,4.469
		c-2.987,2.982-4.481,7.34-4.481,13.08v121.002h-43.147V530.266c0-7.535,0.94-14.285,2.821-20.252
		c1.88-5.963,4.397-11.221,7.55-15.779c3.153-4.555,6.776-8.436,10.87-11.643c4.095-3.205,8.382-5.822,12.861-7.85
		c4.48-2.023,9.017-3.514,13.608-4.473c4.591-0.951,8.878-1.434,12.86-1.434h97.413V512.717z"/>
	<path fill="#FFFFFF" stroke="#000000" stroke-miterlimit="10" d="M468.518,651.268h-77.831c-6.195,0-12.805-1.07-19.829-3.207
		c-7.026-2.135-13.58-5.654-19.665-10.549c-6.086-4.893-11.12-11.248-15.103-19.068c-3.982-7.818-5.975-17.408-5.975-28.775V468.836
		h43.146v120.832c0,5.74,1.495,10.127,4.482,13.166c2.986,3.037,7.411,4.555,13.275,4.555h77.498V651.268z M528.923,668.818
		c0,7.535-0.94,14.316-2.819,20.334c-1.881,6.018-4.372,11.307-7.468,15.865c-3.1,4.555-6.694,8.436-10.787,11.645
		c-4.095,3.205-8.381,5.822-12.861,7.846c-4.481,2.025-8.989,3.516-13.524,4.471c-4.537,0.957-8.853,1.436-12.945,1.436h-77.831
		v-43.875h77.831c5.753,0,10.067-1.521,12.945-4.557c2.875-3.037,4.313-7.426,4.313-13.164V468.836h43.146V668.818z"/>
	<path fill="#FFFFFF" stroke="#000000" stroke-miterlimit="10" d="M767.891,589.668c0,7.537-0.941,14.32-2.821,20.338
		c-1.882,6.02-4.371,11.309-7.468,15.861c-3.098,4.559-6.693,8.439-10.788,11.645c-4.092,3.207-8.379,5.822-12.86,7.848
		c-4.479,2.025-8.988,3.52-13.525,4.473c-4.535,0.955-8.849,1.436-12.943,1.436h-77.83v-43.879h77.83
		c5.753,0,10.067-1.518,12.943-4.555c2.878-3.039,4.316-7.426,4.316-13.166v-59.064c0-6.078-1.467-10.572-4.398-13.502
		c-2.931-2.924-7.219-4.385-12.861-4.385h-77.498c-5.863,0-10.289,1.492-13.276,4.469c-2.986,2.982-4.479,7.34-4.479,13.08v178.043
		h-43.147V530.266c0-7.535,0.941-14.285,2.82-20.252c1.881-5.963,4.398-11.221,7.551-15.779c3.153-4.555,6.777-8.436,10.869-11.643
		c4.096-3.205,8.382-5.822,12.861-7.85c4.481-2.023,9.018-3.514,13.608-4.473c4.591-0.951,8.879-1.434,12.861-1.434h77.83
		c7.413,0,14.052,0.957,19.913,2.869c5.865,1.916,11.037,4.449,15.517,7.596c4.48,3.15,8.298,6.811,11.451,10.969
		c3.152,4.162,5.727,8.523,7.717,13.08c1.991,4.555,3.458,9.143,4.397,13.752c0.94,4.615,1.411,9.006,1.411,13.164V589.668z"/>
	<path fill="#FFFFFF" stroke="#000000" stroke-miterlimit="10" d="M967.028,512.717h-75.34v138.551h-43.645V512.717h-56.092v-43.881
		h56.092v-59.572h43.645v59.572h75.34V512.717z"/>
	<path fill="#FFFFFF" stroke="#000000" stroke-miterlimit="10" d="M1189.9,589.668c0,7.537-0.94,14.32-2.823,20.338
		c-1.88,6.02-4.37,11.309-7.468,15.861c-3.097,4.559-6.693,8.439-10.786,11.645c-4.093,3.207-8.379,5.822-12.861,7.848
		c-4.479,2.025-9.017,3.52-13.608,4.473c-4.591,0.955-8.932,1.436-13.026,1.436h-77.829c-5.975,0-12.503-1.07-19.583-3.207
		c-7.08-2.135-13.636-5.654-19.665-10.549c-6.028-4.893-11.062-11.248-15.101-19.068c-4.039-7.818-6.057-17.408-6.057-28.775
		v-59.402c0-11.248,2.018-20.783,6.057-28.605c4.039-7.82,9.072-14.176,15.101-19.068c6.029-4.896,12.585-8.412,19.665-10.551
		c7.08-2.133,13.608-3.205,19.583-3.205h77.829c11.064,0,20.468,2.027,28.211,6.076c7.745,4.053,13.997,9.143,18.753,15.273
		c4.757,6.135,8.215,12.799,10.373,19.996c2.157,7.201,3.236,13.898,3.236,20.084V589.668z M1146.752,530.604
		c0-6.078-1.493-10.572-4.481-13.502c-2.987-2.924-7.299-4.385-12.943-4.385h-77.498c-5.753,0-10.123,1.492-13.11,4.469
		c-2.987,2.982-4.479,7.34-4.479,13.08v59.402c0,5.74,1.492,10.127,4.479,13.166c2.987,3.037,7.357,4.555,13.11,4.555h77.498
		c5.864,0,10.234-1.518,13.111-4.555c2.876-3.039,4.313-7.426,4.313-13.166V530.604z"/>
	<path fill="#FFFFFF" stroke="#000000" stroke-miterlimit="10" d="M1468.859,598.109c0,5.398-0.913,11.195-2.737,17.383
		c-1.827,6.188-4.813,11.922-8.963,17.211c-4.147,5.291-9.54,9.703-16.179,13.248c-6.637,3.543-14.77,5.316-24.395,5.316h-163.793
		c-3.096,0-5.974-0.563-8.629-1.689c-2.655-1.121-4.951-2.672-6.887-4.641c-1.937-1.967-3.457-4.305-4.563-7.002
		c-1.106-2.701-1.659-5.627-1.659-8.777V431.371c0-3.037,0.553-5.904,1.659-8.605s2.627-5.063,4.563-7.088
		c1.936-2.025,4.231-3.602,6.887-4.727c2.655-1.121,5.533-1.688,8.629-1.688h144.377c5.309,0,11.009,0.957,17.092,2.869
		c6.086,1.916,11.754,4.98,17.012,9.199c5.254,4.217,9.623,9.703,13.107,16.451c3.486,6.752,5.229,15.021,5.229,24.811v8.27
		c0,7.762-1.272,16.117-3.817,25.061c-2.546,8.943-6.639,17.412-12.281,25.396c4.868,3.039,9.433,6.695,13.69,10.971
		c4.262,4.277,7.995,9.227,11.202,14.852c3.208,5.629,5.754,11.982,7.634,19.07c1.882,7.086,2.821,14.908,2.821,23.455V598.109z
		 M1425.713,589.668c0-5.736-0.885-10.883-2.654-15.441c-1.771-4.555-4.26-8.461-7.468-11.727
		c-3.209-3.262-7.081-5.764-11.617-7.512c-4.536-1.744-9.625-2.613-15.269-2.613h-97.245v-44.217h77.829
		c5.643,0,10.733-0.871,15.268-2.615c4.536-1.746,8.41-4.246,11.617-7.51c3.209-3.264,5.671-7.172,7.385-11.729
		c1.715-4.561,2.571-9.705,2.571-15.441v-8.27c0-6.301-2.984-9.451-8.96-9.451h-122.969v154.246h142.385
		c0.774,0,1.714-0.057,2.821-0.168c1.105-0.111,2.102-0.449,2.986-1.012c0.885-0.564,1.659-1.52,2.324-2.871
		c0.663-1.348,0.995-3.207,0.995-5.568V589.668z"/>
	<path fill="#FFFFFF" stroke="#000000" stroke-miterlimit="10" d="M1696.707,589.668c0,7.537-0.939,14.32-2.82,20.338
		c-1.881,6.02-4.37,11.309-7.467,15.861c-3.099,4.559-6.693,8.439-10.788,11.645c-4.092,3.207-8.381,5.822-12.86,7.848
		s-9.017,3.52-13.608,4.473c-4.591,0.955-8.934,1.436-13.027,1.436h-77.83c-5.973,0-12.501-1.07-19.581-3.207
		c-7.082-2.135-13.637-5.654-19.665-10.549c-6.03-4.893-11.063-11.248-15.101-19.068c-4.04-7.818-6.057-17.408-6.057-28.775v-59.402
		c0-11.248,2.017-20.783,6.057-28.605c4.037-7.82,9.07-14.176,15.101-19.068c6.028-4.896,12.583-8.412,19.665-10.551
		c7.08-2.133,13.608-3.205,19.581-3.205h77.83c11.065,0,20.468,2.027,28.212,6.076c7.743,4.053,13.996,9.143,18.752,15.273
		c4.757,6.135,8.215,12.799,10.373,19.996c2.157,7.201,3.234,13.898,3.234,20.084V589.668z M1653.561,530.604
		c0-6.078-1.494-10.572-4.48-13.502c-2.987-2.924-7.301-4.385-12.944-4.385h-77.496c-5.754,0-10.124,1.492-13.11,4.469
		c-2.988,2.982-4.483,7.34-4.483,13.08v59.402c0,5.74,1.495,10.127,4.483,13.166c2.986,3.037,7.356,4.555,13.11,4.555h77.496
		c5.865,0,10.235-1.518,13.11-4.555c2.876-3.039,4.314-7.426,4.314-13.166V530.604z"/>
	<path fill="#FFFFFF" stroke="#000000" stroke-miterlimit="10" d="M1895.681,512.717h-75.341v138.551h-43.645V512.717h-56.092
		v-43.881h56.092v-59.572h43.645v59.572h75.341V512.717z"/>
</g>
</svg>
