<?xml version="1.0" encoding="utf-8"?>
<!-- Generator: Adobe Illustrator 15.0.0, SVG Export Plug-In . SVG Version: 6.00 Build 0)  -->
<!DOCTYPE svg PUBLIC "-//W3C//DTD SVG 1.1//EN" "http://www.w3.org/Graphics/SVG/1.1/DTD/svg11.dtd">
<svg version="1.1"
	 id="svg4226" xmlns:cc="http://creativecommons.org/ns#" xmlns:dc="http://purl.org/dc/elements/1.1/" xmlns:rdf="http://www.w3.org/1999/02/22-rdf-syntax-ns#" xmlns:svg="http://www.w3.org/2000/svg"
	 xmlns="http://www.w3.org/2000/svg" xmlns:xlink="http://www.w3.org/1999/xlink" x="0px" y="0px" width="307px" height="405px"
	 viewBox="99.5 30.75 307 405" enable-background="new 99.5 30.75 307 405" xml:space="preserve">
<g>
	<path id="Shape_12" fill="#3B434F" d="M392.145,323.127C374.837,398.832,286.245,369.183,256,356.604v-0.081
		c-30.244,12.588-118.837,42.261-136.145-33.504c0,0,31.043,0.336,21.725-97.038c0,0-33.631-192.898,114.42-176.775v0.316
		c148.052-16.111,114.419,176.639,114.419,176.639C361.103,323.461,392.145,323.127,392.145,323.127z"/>
	<path id="body-bg-flat_copy" fill="#FFFFFF" d="M133.252,415.206c0,0-5.613-76.368,66.262-83.495h32.226v-14.846
		c0,0,22.669,9.737,45.623,1.086l0.725,13.76h37.657c0,0,64.483,2.532,61.554,84.219L133.252,415.206z"/>
	<path id="Rounded_Rectangle_13_copy_4" fill="#3B434F" d="M376.729,418.25H135.278h-4.683l1.168-19.969
		c2.282-38.988,33.001-68.744,68.154-68.744h24.171c-1.568,1.299-2.717,2.644-3.543,3.983h-18.494
		c-33.88,0-63.488,28.642-65.687,66.17l-0.812,13.853h240.538l-0.447-13.853c-2.202-37.528-31.808-66.17-65.688-66.17h-18.512
		c-0.708-1.329-1.714-2.675-3.12-3.983h23.551c35.152,0,65.872,29.756,68.154,68.744l1.169,19.969H376.729z M281.163,333.521h-1.265
		v-3.983h1.405C281.219,330.573,281.165,331.878,281.163,333.521z M230.235,329.537h1.505v3.983h-1.301
		C230.419,331.83,230.343,330.532,230.235,329.537z"/>
	<path id="Ellipse_5" fill="#3B434F" d="M267.225,384.938c1.4,0,2.535,1.135,2.535,2.535c0,1.398-1.135,2.533-2.535,2.533
		c-1.398,0-2.533-1.135-2.533-2.533C264.691,386.072,265.824,384.938,267.225,384.938z"/>
	<path id="Ellipse_5_copy" fill="#3B434F" d="M267.225,401.594c1.4,0,2.535,1.135,2.535,2.534c0,1.398-1.135,2.534-2.535,2.534
		c-1.398,0-2.533-1.136-2.533-2.534C264.691,402.729,265.824,401.594,267.225,401.594z"/>
	<path id="Shape_2_copy_9" fill="#3B434F" d="M296.555,350.901l-18.467,27.52c-5.023-15.571-19.553-9.777-19.553-9.777v45.986
		c0,1.2-1.136,2.172-2.535,2.172c-1.398,0-2.535-0.972-2.535-2.172v-45.986c-0.117-0.047-14.531-5.729-19.529,9.777l-18.446-27.52
		c0,0-7.135-18.142,14.468-26.07c0-7.912,0-8.328,0-8.328h4.085c0,0,0,15.127,0,26.21c0.524,4.512,3.63,17.367,21.957,21.587
		c18.346-4.22,21.456-17.074,21.98-21.587c0-11.083,0-26.21,0-26.21h4.09c0,0,0,0.416,0,8.328
		C303.697,332.76,296.555,350.901,296.555,350.901z M233.723,353.338c-0.985-1.114-2.402-3.885-2.402-3.885
		s-1.361-4.532-1.361-6.518c0-2.467,0-5.703,0-9.185c-0.308-4.143-1.085-4.214-1.085-4.214c-16.119,7.939-9.042,20.278-9.042,20.278
		l13.383,21.002c5.226-8.856,10.851-7.242,10.851-7.242C239.098,361.044,235.842,357.115,233.723,353.338z M283.156,329.537
		c0,0-0.776,0.071-1.085,4.214c0,3.481,0,6.718,0,9.185c0,1.985-1.363,6.518-1.363,6.518s-1.419,2.771-2.405,3.885
		c-2.12,3.777-5.381,7.706-10.353,10.237c0,0,5.631-1.613,10.862,7.242l13.397-21.002
		C292.21,349.814,299.294,337.477,283.156,329.537z"/>
	<path id="_x32__copy_5" fill="#FFFFFF" d="M256.183,88.026c45.044,0,80.598,42.093,79.441,92.67l-1.229,53.754
		c-1.089,47.647-36.094,85.312-78.213,85.312c-42.119,0-77.124-37.664-78.213-85.312l-1.229-53.754
		C175.585,130.119,211.139,88.026,256.183,88.026z"/>
	<path id="_x32__line" fill="#3B434F" d="M339.244,179.029l-1.288,55.938c-1.143,49.583-37.821,88.776-81.954,88.776
		c-44.133,0-80.813-39.193-81.954-88.776l-1.287-55.938c-1.212-52.631,36.042-96.436,83.241-96.436
		C303.2,82.593,340.454,126.398,339.244,179.029z M255.82,88.388c-44.428,0-79.496,41.764-78.355,91.947l1.211,53.334
		c1.075,47.276,35.601,84.645,77.144,84.645c41.543,0,76.069-37.368,77.144-84.645l1.212-53.334
		C335.316,130.152,300.249,88.388,255.82,88.388z"/>
	<path id="usta" fill="#3B434F" d="M295.105,266.97c-6.581,5.714-21.446,11.152-38.743,11.152c-17.296,0-32.162-5.437-38.743-11.152
		c0,0-0.673-1.853,0.315-2.841c1.006-1.006,2.582-0.788,2.582-0.788c6.575,5.719,18.543,10.435,35.846,10.435
		c17.304,0,29.272-4.716,35.848-10.435c0,0,1.606-0.598,2.389,0.185C296.104,265.03,295.105,266.97,295.105,266.97z"/>
	<path id="_x2D_" fill="#3B434F" d="M244.414,286.813h23.174v3.619h-23.174V286.813L244.414,286.813z"/>
	<path id="oko" fill="#3B434F" d="M216.171,191.221c3.999,0,7.242,3.242,7.242,7.241c0,4-3.243,7.242-7.242,7.242
		c-4,0-7.242-3.242-7.242-7.242C208.929,194.463,212.171,191.221,216.171,191.221z"/>
	<path id="oko_1" fill="#3B434F" d="M296.555,191.221c3.998,0,7.241,3.242,7.241,7.241c0,4-3.243,7.242-7.241,7.242
		c-4,0-7.243-3.242-7.243-7.242C289.312,194.463,292.555,191.221,296.555,191.221z"/>
	<path id="Ellipse_3_copy" fill="#F5F3EF" d="M215.809,218.016c7,0,12.673,0.402,12.673,8.329c0,8.177-5.674,8.329-12.673,8.329
		c-6.999,0-12.673-1.491-12.673-8.329C203.136,218.354,208.81,218.016,215.809,218.016z"/>
	<path id="Ellipse_3_copy_2" fill="#F5F3EF" d="M299.813,218.016c6.998,0,12.672,0.402,12.672,8.329
		c0,8.177-5.674,8.329-12.672,8.329c-7,0-12.673-1.491-12.673-8.329C287.141,218.354,292.813,218.016,299.813,218.016z"/>
	<path id="R_copy" fill="#3B434F" d="M275.52,178.104l2.098,2.664l1.301,1.65c0,0,23.04-12.723,39.034,1.957l1.704,0.835
		c0,0-3.939-21.28-38.427-8.833C279.41,176.872,277.51,177.441,275.52,178.104z"/>
	<path id="L_copy" fill="#3B434F" d="M235.633,178.118l-2.098,2.658l-1.301,1.648c0,0-23.041-12.696-39.033,1.952l-1.705,0.834
		c0,0,3.94-21.236,38.428-8.814C231.744,176.89,233.642,177.457,235.633,178.118z"/>
	<path id="Rectangle_19" fill="#3B434F" d="M333.487,147.046h15.207v36.209h-15.207V147.046z"/>
	<path id="Shape_15" fill="#3B444F" d="M166.704,179.914c0,0,15.996-30.797,46.604-25.898c0,0,1.211,7.015,7.792,14.556
		c0,0,7.206-17.441,29.426-22.355c17.652-3.904,34.41-17.976,34.41-17.976s2.605,27.964,37.002,35.751
		c0,0,30.136,3.727,27.948-12.925c-2.187-16.652-18.912-89.131-98.994-78.16C170.809,83.879,152,112.961,165.994,179.184"/>
	<path id="Shape_11_copy" fill="#F7FBFB" d="M171.821,187.187c-0.01,0.001-0.889-0.702-2.548-1.224
		c-0.83-0.261-1.862-0.475-3.037-0.528c-0.293-0.014-0.596-0.017-0.904-0.007c-0.309,0.009-0.626,0.029-0.946,0.063
		c-0.643,0.069-1.307,0.193-1.975,0.385c-2.674,0.768-5.402,2.637-7.004,6.493c-0.805,1.929-1.335,4.354-1.475,7.389
		c-0.036,0.758-0.046,1.556-0.03,2.393c0.015,0.837,0.056,1.713,0.126,2.631c0.138,1.836,0.388,3.838,0.762,6.021
		c-0.009-0.003-0.348,6.594,2.01,14.172c2.217,7.41,7.541,16.514,17.37,19.115C173.038,225.267,173.003,206.092,171.821,187.187
		L171.821,187.187z"/>
	<path id="Shape_3" fill="#3B434F" d="M173.791,187.945c0,0-17.123-5.305-16.52,12.298c0,0,2.55,25.524,3.656,27.877
		c0,0,6.724,14.863,17.822,15.521c10.846,0.644,0,0,0,0l0.135,4.791c0,0-19.505-2.501-23.273-24.981l-2.974-20.42
		c0,0-2.309-27.024,20.087-20.154c21.818,6.694,0,0,0,0L173.791,187.945"/>
	<path id="Shape_4" fill="#3B434F" d="M168.138,223.408c0,0-0.958,0.724-1.781,0.724c-0.823,0-1.769-0.724-1.769-0.724
		l-1.767-17.807c0,0,2.438-8.769,12.784-4.135l0.245,5.091c0,0-9.077-3.218-8.89,0.789
		C167.141,211.206,168.138,223.408,168.138,223.408z"/>
	<path id="Shape_11_copy_x5F_1" fill="#F7FBFB" d="M339.857,187.228c0.011,0,0.894-0.701,2.561-1.223
		c0.833-0.261,1.868-0.476,3.049-0.528c0.295-0.014,0.598-0.016,0.909-0.008c0.31,0.009,0.628,0.03,0.951,0.064
		c0.645,0.068,1.312,0.191,1.982,0.383c2.687,0.768,5.426,2.635,7.034,6.489c0.809,1.928,1.342,4.351,1.482,7.384
		c0.035,0.759,0.046,1.555,0.03,2.39c-0.017,0.836-0.058,1.712-0.127,2.63c-0.14,1.835-0.392,3.836-0.766,6.017
		c0.01-0.002,0.35,6.589-2.019,14.163c-2.227,7.406-7.573,16.502-17.445,19.103C338.635,225.282,338.671,206.121,339.857,187.228
		L339.857,187.228z"/>
	<path id="Shape_3_x5F_1" fill="#3B434F" d="M337.88,187.987c0,0,17.197-5.303,16.592,12.289c0,0-2.561,25.508-3.672,27.859
		c0,0-6.755,14.852-17.9,15.51c-10.894,0.644,0,0,0,0l-0.135,4.787c0,0,19.591-2.499,23.375-24.963l2.985-20.407
		c0,0,2.318-27.006-20.173-20.14c-21.914,6.689,0,0,0,0L337.88,187.987"/>
	<path id="Shape_4_x5F_1" fill="#3B434F" d="M343.556,223.426c0,0,0.963,0.724,1.789,0.724c0.827,0,1.778-0.724,1.778-0.724
		l1.774-17.795c0,0-2.448-8.763-12.84-4.132l-0.245,5.088c0,0,9.116-3.217,8.928,0.789
		C344.558,211.231,343.556,223.426,343.556,223.426z"/>
	<path id="new_vector_shape_done" fill="#3B434F" d="M262.7,221.999c0.421,0,0.844,0,1.267,0c2.62,3.557,3.687,9.026,5.068,13.759
		c0.43,1.467,0.015,4.032-0.361,5.069c-1.373,3.8-5.684,3.73-9.234,5.432c-0.953,0.457-1.66,1.246-2.896,1.448
		c-0.805-0.709-1.777-0.849-2.173-1.991c-0.978-1.347,0.282-2.188,1.268-2.716c1.787-0.959,7.305-1.903,7.966-3.622
		c0.818-0.93,0.274-3.725,0-4.707c-0.703-2.513-1.039-4.612-1.992-6.879c-0.633-1.505-1.745-3.094-1.085-4.888
		C261.072,222.669,262.253,222.403,262.7,221.999z"/>
</g>
</svg>
