<?xml version="1.0" encoding="utf-8"?>
<!-- Generator: Adobe Illustrator 15.0.0, SVG Export Plug-In . SVG Version: 6.00 Build 0)  -->
<!DOCTYPE svg PUBLIC "-//W3C//DTD SVG 1.1//EN" "http://www.w3.org/Graphics/SVG/1.1/DTD/svg11.dtd">
<svg version="1.1" id="Layer_1" xmlns="http://www.w3.org/2000/svg" xmlns:xlink="http://www.w3.org/1999/xlink" x="0px" y="0px"
	 width="400px" height="400px" viewBox="0 0 400 400" enable-background="new 0 0 400 400" xml:space="preserve">
<path d="M120,0c53.334,0,106.668,0,160.002,0c16.319,6.424,24.243,21.25,21.177,47.061c6.069,5.693,23.96-0.434,30.586,4.705
	c3.228,11.438,4.237,35.798,0,47.06c-7.583,3.396-19.734,2.227-30.586,2.354c8.835,48.054-24.58,53.854-68.237,49.412
	c0,4.707,0,9.412,0,14.117c20.324,7.131,58.265-3.361,75.294,7.061c3.891,8.658,10.98,14.119,9.413,28.234
	c40.395-1.24,59.601,5.057,65.882,32.939c5.71,25.354-7.825,60.358,16.47,68.235c0,9.414,0,18.826,0,28.234
	c-7.697,7.707-35.928,5.74-47.059,2.354c-7.599-19.053,0.176-41.829,14.12-47.061c4.389-43.604,0.235-78.664-49.413-68.234
	c1.623,46.33,7.069,96.482-49.414,84.707c-3.821,4.39-1.873,29.688-2.352,44.707c4.141,7.625,19.371,4.16,25.88,9.412
	c7.509,8.22,15.188,33.193,4.708,44.703c-25.097,0-50.195,0-75.293,0c-9.484-9.475-3.898-34.086,2.353-42.35
	c7.534-3.447,13.072-8.89,25.88-7.062c0-16.473,0-32.938,0-49.412c-32.153,0-64.313,0-96.47,0
	c-5.453,11.017-0.81,32.132-2.352,47.06c12.305,2.598,24.322,5.483,30.587,14.115c2.938,8.832,4.345,29.08,0,37.647
	c-25.884,0-51.764,0-77.646,0c-4.349-8.567-2.941-28.815,0-37.647c7.873-6.24,13.615-14.615,30.587-11.763
	c0-16.473,0-32.938,0-49.412c-21.195,1.584-37.985-1.231-47.06-11.768c-4.969-19.342-1.161-47.465-2.354-70.586
	c-53.709,3.516-76.292-24.098-68.234-82.354C13.828,126.565,4.01,123.834,0,115.293c0-8.627,0-17.254,0-25.883
	c7.654-8.498,38.072-5.215,49.411-2.354c3.976,25.937-4.784,39.138-16.47,49.412c-5.389,43.818,3.445,73.418,51.765,63.529
	c-9.666-49.668,56.216-23.785,82.354-37.646c0-3.138,0-6.273,0-9.412c-37.711-1.506-78.248-0.187-65.881-51.767
	c-11.495-0.272-24.797,1.269-32.941-2.354c-2.5-14.523-7.258-44.629,7.058-49.41c8.625,0,17.256,0,25.883,0
	c0-10.98,0-21.961,0-32.941C105.502,9.029,113.139,4.902,120,0z M117.648,21.178c0,36.863,0,73.728,0,110.588
	c49.479,3.912,115.228,3.912,164.706,0c3.868-32.522,3.868-80.416,0-112.938C233.543,16.361,162.581,11.938,117.648,21.178z
	 M84.706,84.707c6.25-0.023,13.439,0.889,16.474-2.353c0-4.706,0-9.413,0-14.118c-5.611-3.795-10.375,0.948-16.474-2.354
	C84.706,72.158,84.706,78.432,84.706,84.707z M301.179,84.707c6.248-0.023,13.438,0.889,16.469-2.353c0-4.706,0-9.413,0-14.118
	c-5.609-3.795-10.373,0.948-16.469-2.354C301.179,72.158,301.179,78.432,301.179,84.707z M28.239,117.646
	c5.061-1.995,5.453-8.661,4.703-16.471c-5.488,0-10.979,0-16.468,0C15.429,111.633,17.787,118.688,28.239,117.646z M183.53,167.061
	c10.981,0,21.961,0,32.943,0c0-5.489,0-10.979,0-16.471c-10.981,0-21.962,0-32.943,0C183.53,156.08,183.53,161.57,183.53,167.061z
	 M101.18,190.588c0,30.59,0,61.176,0,91.769c60.521,3.901,137.123,3.901,197.645,0c3.715-27.029,4.023-69.494,0-96.474
	c-59.639-5.461-129.392-0.803-192.941-2.352C102.926,184.496,101.073,186.564,101.18,190.588z M367.06,317.65
	c5.488,0,10.98,0,16.47,0c0-4.707,0-9.414,0-14.119C374.228,296.531,362.5,303.371,367.06,317.65z M117.648,383.531
	c16.472,0,32.942,0,49.414,0c0-4.707,0-9.412,0-14.119C154.082,368.641,110.125,356.074,117.648,383.531z M232.94,383.531
	c17.256,0,34.512,0,51.764,0c1.7-7.193-2.402-8.574-2.351-14.119C268.615,367.881,226.768,357.426,232.94,383.531z M155.294,35.295
	c36.37-6.453,32.972,48.389,4.706,49.412C135.111,85.607,120.559,41.459,155.294,35.295z M150.589,63.531
	c3.139,3.354,13.33,3.354,16.471,0C171.339,45.5,146.311,45.5,150.589,63.531z M237.647,35.295
	c37.207-7.789,35.649,47.367,7.061,49.412C220.105,86.467,202.969,42.553,237.647,35.295z M232.94,61.178
	c1.998,5.063,8.665,5.455,16.471,4.705c0-4.705,0-9.412,0-14.117C241.258,47.543,233.343,51.305,232.94,61.178z M167.061,110.59
	c8.164,9.754,64.851,15.308,65.881-4.707C221.731,100.283,170.843,93.324,167.061,110.59z M143.53,218.826
	c3.36-0.564,3.969-3.875,7.061-4.709C152.975,183.752,117.861,214.041,143.53,218.826z M232.94,202.354
	c-1.394,20.565,2.901,46.821-2.352,63.528c-13.373,1.142-40.671-0.772-61.174,0c-3.864-16.069-3.864-47.459,0-63.528
	C185.745,198.229,216.506,198.857,232.94,202.354z M183.53,249.41c10.981,0,21.961,0,32.943,0c0-10.979,0-21.957,0-32.939
	c-10.981,0-21.962,0-32.943,0C183.53,227.453,183.53,238.432,183.53,249.41z M263.53,218.826c3.241-3.035,2.329-10.224,2.354-16.474
	C249.485,190.967,242.171,222.732,263.53,218.826z M136.473,251.764c9.596,0.978,14.844-2.407,14.117-11.762
	C145.013,225.119,126.638,239.219,136.473,251.764z M249.412,240.002c1.05,7.574,3.594,13.662,14.118,11.762
	c3.241-3.028,2.329-10.217,2.354-16.469C258.219,231.387,253.541,234.574,249.412,240.002z"/>
</svg>
