<?xml version="1.0" encoding="utf-8"?>
<!-- Generator: Adobe Illustrator 15.0.0, SVG Export Plug-In . SVG Version: 6.00 Build 0)  -->
<!DOCTYPE svg PUBLIC "-//W3C//DTD SVG 1.1//EN" "http://www.w3.org/Graphics/SVG/1.1/DTD/svg11.dtd">
<svg version="1.1" id="Layer_1" xmlns="http://www.w3.org/2000/svg" xmlns:xlink="http://www.w3.org/1999/xlink" x="0px" y="0px"
	 width="512px" height="512px" viewBox="0 0 512 512" enable-background="new 0 0 512 512" xml:space="preserve">
<g>
	<path fill="#DC4D41" d="M204.746,129.891l49.09-49.09l37.695,37.695l-49.09,49.09L204.746,129.891z"/>
	<path fill="#EA6B65" d="M95.461,180.133L224.32,51.273l36.816,36.816L132.277,216.953L95.461,180.133z"/>
	<path fill="#EA6B65" d="M322.5,39l18.406,18.406l-104.32,104.316l36.82,36.82l104.32-104.316l18.406,18.406l18.414-92.039L322.5,39
		z"/>
	<path fill="#F3AF3E" d="M44.289,400.086h69.422v104.137H44.289V400.086z"/>
	<path fill="#99D8AA" d="M165.781,339.34h69.422v164.883h-69.422V339.34z"/>
	<path fill="#6CBAE5" d="M287.27,252.559h69.426v251.66H287.27V252.559z"/>
	<path fill="#EA6B65" d="M408.762,174.457h69.426v329.762h-69.426V174.457z"/>
</g>
</svg>
