<?xml version="1.0" encoding="utf-8"?>
<!-- Generator: Adobe Illustrator 15.0.0, SVG Export Plug-In . SVG Version: 6.00 Build 0)  -->
<!DOCTYPE svg PUBLIC "-//W3C//DTD SVG 1.1//EN" "http://www.w3.org/Graphics/SVG/1.1/DTD/svg11.dtd">
<svg version="1.1" id="Layer_1" xmlns="http://www.w3.org/2000/svg" xmlns:xlink="http://www.w3.org/1999/xlink" x="0px" y="0px"
	 width="512px" height="512px" viewBox="0 0 512 512" enable-background="new 0 0 512 512" xml:space="preserve">
<path fill="#FFFFFF" d="M204.746,129.891l49.09-49.09l37.695,37.695l-49.09,49.09L204.746,129.891z"/>
<path fill="#FFFFFF" d="M95.461,180.133L224.32,51.273l36.817,36.816l-128.86,128.864L95.461,180.133z"/>
<path fill="#FFFFFF" d="M322.5,39l18.406,18.406l-104.32,104.316l36.82,36.82L377.726,94.226l18.406,18.406l18.414-92.039L322.5,39z
	"/>
<path fill="#FFFFFF" d="M44.289,400.086h69.422v104.137H44.289V400.086z"/>
<path fill="#FFFFFF" d="M165.781,339.34h69.422v164.883h-69.422V339.34z"/>
<path fill="#FFFFFF" d="M287.27,252.559h69.427v251.66H287.27V252.559z"/>
<path fill="#FFFFFF" d="M408.762,174.457h69.426v329.762h-69.426V174.457z"/>
</svg>
